<svg width="20" height="20" viewBox="0 0 20 20" fill="none" xmlns="http://www.w3.org/2000/svg">
<path d="M5.95019 9.34422C5.96452 9.34422 5.97825 9.34997 5.98831 9.36018L7.79058 11.1641C7.80546 11.1793 7.80983 11.202 7.80173 11.2217C7.79363 11.2415 7.77461 11.2545 7.75327 11.2549H7.29256C7.26273 11.2549 7.23829 11.2786 7.23742 11.3085V15.364C7.23806 15.6207 7.3401 15.8667 7.52131 16.0485L7.79058 16.3178C7.80546 16.3331 7.80983 16.3558 7.80173 16.3755C7.79363 16.3952 7.77461 16.4082 7.75327 16.4087H5.62819C5.09065 16.4087 4.65488 15.9729 4.65488 15.4354V11.3085C4.65488 11.2789 4.6309 11.2549 4.60133 11.2549H4.14713C4.1255 11.2551 4.10588 11.2423 4.09738 11.2225C4.08885 11.2026 4.09313 11.1796 4.10819 11.1641L5.91208 9.36018C5.92215 9.34997 5.93588 9.34422 5.95019 9.34422ZM9.93596 10.3889C9.95029 10.3889 9.96402 10.3947 9.97408 10.4049L11.778 12.2023C11.793 12.2178 11.7973 12.2408 11.7888 12.2607C11.7803 12.2806 11.7606 12.2933 11.739 12.2931H11.2783C11.2485 12.294 11.2248 12.3185 11.2248 12.3483V15.364C11.225 15.6204 11.3265 15.8665 11.5071 16.0485L11.778 16.3178C11.793 16.3333 11.7973 16.3563 11.7888 16.3762C11.7803 16.3961 11.7606 16.4089 11.739 16.4087H9.61881C9.08127 16.4087 8.6455 15.9729 8.6455 15.4354V12.3515C8.6455 12.3217 8.62179 12.2972 8.59196 12.2964H8.13288C8.11156 12.296 8.09252 12.2829 8.08442 12.2632C8.07633 12.2435 8.08071 12.2208 8.09556 12.2055L9.89783 10.4049C9.9079 10.3947 9.92163 10.3889 9.93596 10.3889ZM13.9225 11.4224C13.9366 11.4224 13.9501 11.4281 13.9598 11.4382L15.7637 13.2405C15.7798 13.2556 15.7849 13.279 15.7766 13.2995C15.7684 13.3199 15.7485 13.3332 15.7264 13.333H15.2641C15.2345 13.333 15.2106 13.3569 15.2106 13.3865V15.364C15.2112 15.6207 15.3132 15.8667 15.4944 16.0485L15.7637 16.3178C15.7786 16.3331 15.783 16.3558 15.7749 16.3755C15.7668 16.3952 15.7477 16.4082 15.7264 16.4087H13.5997C13.0622 16.4087 12.6264 15.9729 12.6264 15.4354V13.3865C12.6264 13.3569 12.6024 13.333 12.5729 13.333H12.1186C12.0966 13.3332 12.0767 13.3199 12.0684 13.2995C12.0602 13.279 12.0653 13.2556 12.0813 13.2405L13.8852 11.4382C13.895 11.4281 13.9085 11.4224 13.9225 11.4224ZM9.89946 3.59141C12.733 3.61204 15.2321 5.45202 16.093 8.15164C18.1974 8.42627 19.7763 10.2116 19.7917 12.3337C19.7917 14.0851 18.6963 15.5406 16.9278 16.1465L16.862 16.1686L16.7809 16.1945V14.887C17.905 14.4133 18.5653 13.4773 18.5653 12.3337C18.5595 10.7199 17.2815 9.40212 15.6752 9.34068L15.621 9.3391H15.1343L15.0175 8.87514C14.4443 6.509 12.334 4.83681 9.89946 4.81962C7.89627 4.81002 6.06694 5.94829 5.18906 7.74416L5.0085 8.11595L4.66785 8.15164C3.12929 8.31622 1.86597 9.44156 1.5253 10.9509C1.18949 12.4387 1.82353 13.9746 3.10471 14.7935L3.16081 14.8286V16.2075H3.15271L3.03104 16.1523C1.10678 15.2677 -0.0203677 13.2362 0.24744 11.1354C0.515248 9.03452 2.116 7.35075 4.20065 6.97716C5.32692 4.88056 7.51954 3.57797 9.89946 3.59141Z" fill="#3448C5"/>
</svg>
