<svg width="20" height="16" viewBox="0 0 20 16" fill="none" xmlns="http://www.w3.org/2000/svg">
<g clip-path="url(#clip0_27_307)">
<mask id="mask0_27_307" style="mask-type:luminance" maskUnits="userSpaceOnUse" x="0" y="0" width="20" height="16">
<path d="M19.9706 0H0V16H19.9706V0Z" fill="white"/>
</mask>
<g mask="url(#mask0_27_307)">
<path d="M19.6471 6.57313C19.1588 6.23881 17.8706 6.09552 16.9353 6.35224C16.8824 5.40896 16.4059 4.60896 15.5235 3.91642L15.2 3.69552L14.9824 4.02985C14.5588 4.68657 14.3765 5.56418 14.4412 6.35821C14.4882 6.84776 14.6588 7.39702 14.9824 7.79702C13.7647 8.51343 12.6412 8.35224 7.67059 8.35224H1.61919e-06C-0.0235278 9.49254 0.158825 11.6836 1.52941 13.4627C1.68235 13.6597 1.84706 13.8507 2.02941 14.0358C3.14706 15.1701 4.82941 16 7.35294 16.006C11.2 16.006 14.4941 13.8985 16.5 8.79403C17.1588 8.80597 18.9 8.91343 19.7529 7.24179C19.7765 7.21194 19.9706 6.8 19.9706 6.8L19.6471 6.5791V6.57313ZM5.01177 5.53433H2.85294V7.72537H5.01177V5.53433ZM7.8 5.53433H5.64118V7.72537H7.8V5.53433ZM10.5824 5.53433H8.42353V7.72537H10.5824V5.53433ZM13.3706 5.53433H11.2118V7.72537H13.3706V5.53433ZM2.22353 5.53433H0.0647075V7.72537H2.22353V5.53433ZM5.01177 2.76418H2.85294V4.95522H5.01177V2.76418ZM7.8 2.76418H5.64118V4.95522H7.8V2.76418ZM10.5824 2.76418H8.42353V4.95522H10.5824V2.76418ZM10.5824 0H8.42353V2.19104H10.5824V0Z" fill="#2560FF"/>
</g>
</g>
<defs>
<clipPath id="clip0_27_307">
<rect width="20" height="16" fill="white"/>
</clipPath>
</defs>
</svg>
