<svg width="13" height="16" viewBox="0 0 13 16" fill="none" xmlns="http://www.w3.org/2000/svg">
<g clip-path="url(#clip0_24_7)">
<path d="M4.07162 15.54C4.75483 15.8095 5.49602 15.9694 6.2743 15.996C7.32756 16.0321 8.32916 15.8187 9.22457 15.4133C8.15083 14.9999 7.17839 14.3954 6.34842 13.6438C5.81044 14.4878 5.01474 15.1546 4.07162 15.54Z" fill="#FF9100"/>
<path d="M6.34826 13.6441C4.45374 11.9271 3.30444 9.44208 3.40157 6.7164C3.40474 6.62791 3.4095 6.53944 3.41509 6.45101C3.07578 6.36502 2.72154 6.31255 2.35701 6.30008C1.83523 6.28222 1.3299 6.34564 0.852851 6.47727C0.34711 7.34536 0.0419207 8.3414 0.00389868 9.40827C-0.0942214 12.1616 1.60618 14.5674 4.07144 15.5403C5.01458 15.1548 5.81026 14.4889 6.34826 13.6441Z" fill="#FFC400"/>
<path d="M6.34836 13.644C6.78883 12.9533 7.05587 12.1435 7.08696 11.271C7.16875 8.97604 5.5943 7.00182 3.41519 6.45093C3.40961 6.53936 3.40485 6.62783 3.40167 6.71632C3.30455 9.442 4.45384 11.9271 6.34836 13.644Z" fill="#FF9100"/>
<path d="M6.84328 0C5.6022 0.974278 4.62218 2.25895 4.02922 3.73887C3.68976 4.58654 3.47643 5.49708 3.41416 6.45156C5.59327 7.00245 7.16775 8.97667 7.08597 11.2716C7.05487 12.1441 6.78703 12.9531 6.34733 13.6446C7.17724 14.397 8.14972 15.0008 9.22346 15.4141C11.3787 14.4379 12.9078 12.3373 12.9964 9.85263C13.0537 8.24284 12.4225 6.80807 11.5306 5.59704C10.5887 4.31622 6.84328 0 6.84328 0Z" fill="#DD2C00"/>
</g>
<defs>
<clipPath id="clip0_24_7">
<rect width="13" height="16" fill="white"/>
</clipPath>
</defs>
</svg>
