<svg width="79" height="16" viewBox="0 0 79 16" fill="none" xmlns="http://www.w3.org/2000/svg">
<path d="M-4.05312e-06 15V0.454545H8.72159V2.01705H1.76136V6.93182H8.06818V8.49432H1.76136V15H-4.05312e-06ZM11.511 15V4.09091H13.1871V15H11.511ZM12.3633 2.27273C12.0366 2.27273 11.7548 2.16146 11.5181 1.93892C11.2861 1.71638 11.1701 1.44886 11.1701 1.13636C11.1701 0.823864 11.2861 0.556345 11.5181 0.333806C11.7548 0.111269 12.0366 0 12.3633 0C12.69 0 12.9693 0.111269 13.2013 0.333806C13.4381 0.556345 13.5565 0.823864 13.5565 1.13636C13.5565 1.44886 13.4381 1.71638 13.2013 1.93892C12.9693 2.16146 12.69 2.27273 12.3633 2.27273ZM16.2571 15V4.09091H17.8764V5.73864H17.9901C18.1889 5.19886 18.5488 4.76089 19.0696 4.42472C19.5904 4.08854 20.1776 3.92045 20.831 3.92045C20.9541 3.92045 21.108 3.92282 21.2926 3.92756C21.4773 3.93229 21.6169 3.93939 21.7116 3.94886V5.65341C21.6548 5.6392 21.5246 5.6179 21.321 5.58949C21.1222 5.55634 20.9115 5.53977 20.6889 5.53977C20.1586 5.53977 19.6851 5.65104 19.2685 5.87358C18.8565 6.09138 18.5298 6.39441 18.2883 6.78267C18.0516 7.16619 17.9332 7.60417 17.9332 8.09659V15H16.2571ZM27.9403 15.2273C26.8892 15.2273 25.9825 14.9953 25.2202 14.5312C24.4626 14.0625 23.8778 13.4091 23.4659 12.571C23.0587 11.7282 22.8551 10.7481 22.8551 9.63068C22.8551 8.51326 23.0587 7.52841 23.4659 6.67614C23.8778 5.81913 24.4508 5.15152 25.1847 4.6733C25.9233 4.19034 26.785 3.94886 27.7699 3.94886C28.3381 3.94886 28.8991 4.04356 29.4531 4.23295C30.0071 4.42235 30.5114 4.73011 30.9659 5.15625C31.4205 5.57765 31.7827 6.13636 32.0526 6.83239C32.3224 7.52841 32.4574 8.38542 32.4574 9.40341V10.1136H24.0483V8.66477H30.7528C30.7528 8.04924 30.6297 7.5 30.3835 7.01705C30.142 6.53409 29.7964 6.15294 29.3466 5.87358C28.9015 5.59422 28.3759 5.45455 27.7699 5.45455C27.1023 5.45455 26.5246 5.62026 26.0369 5.9517C25.554 6.27841 25.1823 6.70455 24.9219 7.23011C24.6615 7.75568 24.5312 8.31913 24.5312 8.92045V9.88636C24.5312 10.7102 24.6733 11.4086 24.9574 11.9815C25.2462 12.5497 25.6463 12.983 26.1577 13.2812C26.669 13.5748 27.2633 13.7216 27.9403 13.7216C28.3807 13.7216 28.7784 13.66 29.1335 13.5369C29.4934 13.4091 29.8035 13.2197 30.0639 12.9688C30.3243 12.7131 30.5256 12.3958 30.6676 12.017L32.2869 12.4716C32.1165 13.0208 31.83 13.5038 31.4276 13.9205C31.0251 14.3324 30.5279 14.6544 29.9361 14.8864C29.3442 15.1136 28.679 15.2273 27.9403 15.2273ZM35.2344 15V0.454545H36.9105V5.82386H37.0526C37.1757 5.63447 37.3461 5.39299 37.5639 5.09943C37.7865 4.80114 38.1037 4.53598 38.5156 4.30398C38.9323 4.06723 39.4957 3.94886 40.206 3.94886C41.1245 3.94886 41.9342 4.1785 42.6349 4.63778C43.3357 5.09706 43.8826 5.74811 44.2756 6.59091C44.6686 7.43371 44.8651 8.42803 44.8651 9.57386C44.8651 10.7292 44.6686 11.7306 44.2756 12.5781C43.8826 13.4209 43.3381 14.0743 42.642 14.5384C41.946 14.9976 41.1435 15.2273 40.2344 15.2273C39.5336 15.2273 38.9725 15.1113 38.5511 14.8793C38.1297 14.6425 37.8054 14.375 37.5781 14.0767C37.3508 13.7737 37.1757 13.5227 37.0526 13.3239H36.8537V15H35.2344ZM36.8821 9.54545C36.8821 10.3693 37.0028 11.0961 37.2443 11.7259C37.4858 12.3509 37.8385 12.8409 38.3026 13.196C38.7666 13.5464 39.3347 13.7216 40.0071 13.7216C40.7079 13.7216 41.2926 13.5369 41.7614 13.1676C42.2348 12.7936 42.59 12.2917 42.8267 11.6619C43.0682 11.0275 43.1889 10.322 43.1889 9.54545C43.1889 8.77841 43.0705 8.08712 42.8338 7.47159C42.6018 6.85133 42.249 6.36127 41.7756 6.00142C41.3068 5.63684 40.7173 5.45455 40.0071 5.45455C39.3253 5.45455 38.7524 5.62737 38.2883 5.97301C37.8243 6.31392 37.474 6.79214 37.2372 7.40767C37.0005 8.01847 36.8821 8.73106 36.8821 9.54545ZM50.6392 15.2557C49.9479 15.2557 49.3205 15.1255 48.7571 14.8651C48.1937 14.5999 47.7462 14.2188 47.4148 13.7216C47.0833 13.2197 46.9176 12.6136 46.9176 11.9034C46.9176 11.2784 47.0407 10.7718 47.2869 10.3835C47.5331 9.99053 47.8622 9.68276 48.2741 9.46023C48.6861 9.23769 49.1406 9.07197 49.6378 8.96307C50.1397 8.84943 50.6439 8.75947 51.1506 8.69318C51.8134 8.60795 52.3508 8.54403 52.7628 8.50142C53.1794 8.45407 53.4825 8.37595 53.6719 8.26705C53.866 8.15814 53.9631 7.96875 53.9631 7.69886V7.64205C53.9631 6.94129 53.7713 6.39678 53.3878 6.00852C53.009 5.62027 52.4337 5.42614 51.6619 5.42614C50.8617 5.42614 50.2344 5.60133 49.7798 5.9517C49.3253 6.30208 49.0057 6.67614 48.821 7.07386L47.2301 6.50568C47.5142 5.8428 47.893 5.3267 48.3665 4.95739C48.8447 4.58333 49.3655 4.32292 49.929 4.17614C50.4972 4.02462 51.0559 3.94886 51.6051 3.94886C51.9555 3.94886 52.358 3.99148 52.8125 4.0767C53.2718 4.1572 53.7145 4.32528 54.1406 4.58097C54.5715 4.83665 54.929 5.22254 55.2131 5.73864C55.4972 6.25473 55.6392 6.94602 55.6392 7.8125V15H53.9631V13.5227H53.8778C53.7642 13.7595 53.5748 14.0128 53.3097 14.2827C53.0445 14.5526 52.6918 14.7822 52.2514 14.9716C51.8111 15.161 51.2737 15.2557 50.6392 15.2557ZM50.8949 13.75C51.5578 13.75 52.1165 13.6198 52.571 13.3594C53.0303 13.099 53.3759 12.7628 53.608 12.3509C53.8447 11.9389 53.9631 11.5057 53.9631 11.0511V9.51705C53.892 9.60227 53.7358 9.6804 53.4943 9.75142C53.2576 9.81771 52.983 9.87689 52.6705 9.92898C52.3627 9.97633 52.062 10.0189 51.7685 10.0568C51.4796 10.09 51.2453 10.1184 51.0653 10.142C50.6297 10.1989 50.2225 10.2912 49.8437 10.419C49.4697 10.5421 49.1667 10.7292 48.9347 10.9801C48.7074 11.2263 48.5937 11.5625 48.5937 11.9886C48.5937 12.571 48.8092 13.0114 49.2401 13.3097C49.6757 13.6032 50.2273 13.75 50.8949 13.75ZM66.4258 6.53409L64.9201 6.96023C64.8254 6.70928 64.6857 6.46544 64.5011 6.22869C64.3211 5.98722 64.0749 5.78835 63.7624 5.6321C63.4499 5.47585 63.0498 5.39773 62.5621 5.39773C61.8945 5.39773 61.3382 5.55161 60.8931 5.85938C60.4528 6.16241 60.2326 6.5483 60.2326 7.01705C60.2326 7.43371 60.3841 7.76278 60.6871 8.00426C60.9902 8.24574 61.4637 8.44697 62.1076 8.60795L63.7269 9.00568C64.7023 9.24242 65.4291 9.60464 65.9073 10.0923C66.3855 10.5753 66.6246 11.1979 66.6246 11.9602C66.6246 12.5852 66.4447 13.1439 66.0849 13.6364C65.7298 14.1288 65.2326 14.517 64.5934 14.8011C63.9542 15.0852 63.2108 15.2273 62.3633 15.2273C61.2506 15.2273 60.3297 14.9858 59.6005 14.5028C58.8713 14.0199 58.4097 13.3144 58.2155 12.3864L59.8065 11.9886C59.958 12.5758 60.2444 13.0161 60.6658 13.3097C61.092 13.6032 61.6483 13.75 62.3349 13.75C63.1161 13.75 63.7364 13.5843 64.1957 13.2528C64.6597 12.9167 64.8917 12.5142 64.8917 12.0455C64.8917 11.6667 64.7591 11.3494 64.494 11.0938C64.2288 10.8333 63.8216 10.6392 63.2724 10.5114L61.4542 10.0852C60.4551 9.84848 59.7212 9.48153 59.2525 8.98438C58.7885 8.48248 58.5565 7.85511 58.5565 7.10227C58.5565 6.48674 58.7293 5.94223 59.0749 5.46875C59.4253 4.99527 59.9012 4.62358 60.5025 4.35369C61.1085 4.08381 61.7951 3.94886 62.5621 3.94886C63.6417 3.94886 64.4892 4.18561 65.1048 4.65909C65.725 5.13258 66.1654 5.75758 66.4258 6.53409ZM73.7216 15.2273C72.6705 15.2273 71.7637 14.9953 71.0014 14.5312C70.2438 14.0625 69.6591 13.4091 69.2472 12.571C68.84 11.7282 68.6364 10.7481 68.6364 9.63068C68.6364 8.51326 68.84 7.52841 69.2472 6.67614C69.6591 5.81913 70.232 5.15152 70.9659 4.6733C71.7045 4.19034 72.5663 3.94886 73.5511 3.94886C74.1193 3.94886 74.6804 4.04356 75.2344 4.23295C75.7883 4.42235 76.2926 4.73011 76.7472 5.15625C77.2017 5.57765 77.5639 6.13636 77.8338 6.83239C78.1037 7.52841 78.2386 8.38542 78.2386 9.40341V10.1136H69.8295V8.66477H76.5341C76.5341 8.04924 76.411 7.5 76.1648 7.01705C75.9233 6.53409 75.5776 6.15294 75.1278 5.87358C74.6828 5.59422 74.1572 5.45455 73.5511 5.45455C72.8835 5.45455 72.3059 5.62026 71.8182 5.9517C71.3352 6.27841 70.9635 6.70455 70.7031 7.23011C70.4427 7.75568 70.3125 8.31913 70.3125 8.92045V9.88636C70.3125 10.7102 70.4545 11.4086 70.7386 11.9815C71.0275 12.5497 71.4276 12.983 71.9389 13.2812C72.4503 13.5748 73.0445 13.7216 73.7216 13.7216C74.1619 13.7216 74.5597 13.66 74.9148 13.5369C75.2746 13.4091 75.5847 13.2197 75.8452 12.9688C76.1056 12.7131 76.3068 12.3958 76.4489 12.017L78.0682 12.4716C77.8977 13.0208 77.6113 13.5038 77.2088 13.9205C76.8063 14.3324 76.3092 14.6544 75.7173 14.8864C75.1255 15.1136 74.4602 15.2273 73.7216 15.2273Z" fill="white"/>
</svg>
