<svg width="36" height="29" viewBox="0 0 36 29" fill="none" xmlns="http://www.w3.org/2000/svg">
<path d="M13.3923 22.2303C13.3923 22.2303 12.0516 22.8587 14.3477 23.0708C17.1298 23.3268 18.5515 23.2901 21.6166 22.8234C21.6166 22.8234 22.4241 23.2301 23.5496 23.5826C16.6762 25.9547 7.99425 23.4451 13.3923 22.2303ZM12.5519 19.1343C12.5519 19.1343 11.0478 20.0312 13.3459 20.2229C16.3178 20.4701 18.6643 20.4903 22.7267 19.8604C22.7267 19.8604 23.2872 20.3192 24.1701 20.5698C15.8614 22.5273 6.60712 20.7238 12.5519 19.1343Z" fill="#0074BD"/>
<path d="M19.6318 13.8817C21.3263 15.4529 19.1874 16.8656 19.1874 16.8656C19.1874 16.8656 23.4875 15.0777 21.5131 12.8379C19.6684 10.7502 18.2542 9.7132 25.9104 6.13623C25.9104 6.13646 13.8923 8.55365 19.6318 13.8817Z" fill="#EA2D2E"/>
<path d="M28.7221 24.5206C28.7221 24.5206 29.7146 25.1799 27.6286 25.6894C23.6624 26.6573 11.1175 26.9491 7.63341 25.7282C6.38156 25.2891 8.73 24.6803 9.46884 24.5518C10.2392 24.4175 10.6791 24.442 10.6791 24.442C9.28603 23.6519 1.67541 25.9939 6.81384 26.6657C20.826 28.4954 32.3561 25.8417 28.7221 24.5206ZM14.0378 15.9259C14.0378 15.9259 7.65731 17.1469 11.7785 17.5907C13.5188 17.7783 16.9867 17.7353 20.2191 17.5169C22.86 17.3381 25.5102 16.9563 25.5102 16.9563C25.5102 16.9563 24.5798 17.2778 23.906 17.648C17.4254 19.0212 4.90922 18.3816 8.51288 16.9779C11.5594 15.7909 14.0378 15.9259 14.0378 15.9259ZM25.4838 21.0796C32.0709 18.323 29.025 15.6738 26.899 16.0306C26.3793 16.1178 26.1461 16.1937 26.1461 16.1937C26.1461 16.1937 26.3396 15.9493 26.7086 15.8441C30.9142 14.6536 34.148 19.3565 25.3522 21.2193C25.3522 21.2189 25.4531 21.1453 25.4838 21.0796Z" fill="#0074BD"/>
<path d="M21.5131 0.359497C21.5131 0.359497 25.1603 3.29937 18.0529 7.81861C12.3531 11.445 16.7532 13.5121 18.0509 15.875C14.7234 13.4568 12.2828 11.3278 13.9199 9.34655C16.324 6.43885 22.9843 5.0285 21.5131 0.359497Z" fill="#EA2D2E"/>
<path d="M14.6852 28.5517C21.0066 28.8772 30.7164 28.3704 30.9462 25.9607C30.9462 25.9607 30.5044 26.8742 25.7214 27.599C20.3254 28.4173 13.6688 28.3219 9.72197 27.797C9.72197 27.7972 10.5306 28.3364 14.6852 28.5517Z" fill="#0074BD"/>
</svg>
