<svg width="46" height="17" viewBox="0 0 46 17" fill="none" xmlns="http://www.w3.org/2000/svg">
<path d="M7.15625 -4.76837e-07H9.09375V11.4375C9.09375 12.4583 8.90625 13.3255 8.53125 14.0391C8.15625 14.7526 7.6276 15.2943 6.94531 15.6641C6.26302 16.0339 5.45833 16.2187 4.53125 16.2187C3.65625 16.2187 2.8776 16.0599 2.19531 15.7422C1.51302 15.4193 0.976562 14.9609 0.585937 14.3672C0.195313 13.7734 3.72529e-08 13.0677 3.72529e-08 12.25H1.90625C1.90625 12.7031 2.01823 13.099 2.24219 13.4375C2.47135 13.7708 2.78385 14.0312 3.17969 14.2187C3.57552 14.4062 4.02604 14.5 4.53125 14.5C5.08854 14.5 5.5625 14.3828 5.95313 14.1484C6.34375 13.9141 6.64063 13.5703 6.84375 13.1172C7.05208 12.6589 7.15625 12.099 7.15625 11.4375V-4.76837e-07ZM16.2578 16.2813C15.4974 16.2813 14.8073 16.138 14.1875 15.8516C13.5677 15.5599 13.0755 15.1406 12.7109 14.5938C12.3464 14.0417 12.1641 13.375 12.1641 12.5937C12.1641 11.9062 12.2995 11.349 12.5703 10.9219C12.8411 10.4896 13.2031 10.151 13.6563 9.90625C14.1094 9.66146 14.6094 9.47917 15.1563 9.35937C15.7083 9.23438 16.263 9.13542 16.8203 9.0625C17.5495 8.96875 18.1406 8.89844 18.5938 8.85156C19.0521 8.79948 19.3854 8.71354 19.5938 8.59375C19.8073 8.47396 19.9141 8.26562 19.9141 7.96875V7.90625C19.9141 7.13542 19.7031 6.53646 19.2813 6.10937C18.8646 5.68229 18.2318 5.46875 17.3828 5.46875C16.5026 5.46875 15.8125 5.66146 15.3125 6.04687C14.8125 6.43229 14.4609 6.84375 14.2578 7.28125L12.5078 6.65625C12.8203 5.92708 13.237 5.35937 13.7578 4.95312C14.2839 4.54167 14.8568 4.25521 15.4766 4.09375C16.1016 3.92708 16.7161 3.84375 17.3203 3.84375C17.7057 3.84375 18.1484 3.89062 18.6484 3.98437C19.1536 4.07292 19.6406 4.25781 20.1094 4.53906C20.5833 4.82031 20.9766 5.24479 21.2891 5.8125C21.6016 6.38021 21.7578 7.14062 21.7578 8.09375V16H19.9141V14.375H19.8203C19.6953 14.6354 19.487 14.9141 19.1953 15.2109C18.9036 15.5078 18.5156 15.7604 18.0313 15.9687C17.5469 16.1771 16.9557 16.2813 16.2578 16.2813ZM16.5391 14.625C17.2682 14.625 17.8828 14.4818 18.3828 14.1953C18.888 13.9089 19.2682 13.5391 19.5234 13.0859C19.7839 12.6328 19.9141 12.1562 19.9141 11.6562V9.96875C19.8359 10.0625 19.6641 10.1484 19.3984 10.2266C19.138 10.2995 18.8359 10.3646 18.4922 10.4219C18.1536 10.474 17.8229 10.5208 17.5 10.5625C17.1823 10.599 16.9245 10.6302 16.7266 10.6562C16.2474 10.7187 15.7995 10.8203 15.3828 10.9609C14.9714 11.0964 14.638 11.3021 14.3828 11.5781C14.1328 11.849 14.0078 12.2187 14.0078 12.6875C14.0078 13.3281 14.2448 13.8125 14.7188 14.1406C15.1979 14.4635 15.8047 14.625 16.5391 14.625ZM34.5059 4L30.0684 16H28.1934L23.7559 4H25.7559L29.0684 13.5625H29.1934L32.5059 4H34.5059ZM40.1055 16.2813C39.3451 16.2813 38.6549 16.138 38.0352 15.8516C37.4154 15.5599 36.9232 15.1406 36.5586 14.5938C36.194 14.0417 36.0117 13.375 36.0117 12.5937C36.0117 11.9062 36.1471 11.349 36.418 10.9219C36.6888 10.4896 37.0508 10.151 37.5039 9.90625C37.957 9.66146 38.457 9.47917 39.0039 9.35937C39.556 9.23438 40.1107 9.13542 40.668 9.0625C41.3971 8.96875 41.9883 8.89844 42.4414 8.85156C42.8997 8.79948 43.2331 8.71354 43.4414 8.59375C43.6549 8.47396 43.7617 8.26562 43.7617 7.96875V7.90625C43.7617 7.13542 43.5508 6.53646 43.1289 6.10937C42.7122 5.68229 42.0794 5.46875 41.2305 5.46875C40.3503 5.46875 39.6602 5.66146 39.1602 6.04687C38.6602 6.43229 38.3086 6.84375 38.1055 7.28125L36.3555 6.65625C36.668 5.92708 37.0846 5.35937 37.6055 4.95312C38.1315 4.54167 38.7044 4.25521 39.3242 4.09375C39.9492 3.92708 40.5638 3.84375 41.168 3.84375C41.5534 3.84375 41.9961 3.89062 42.4961 3.98437C43.0013 4.07292 43.4883 4.25781 43.957 4.53906C44.431 4.82031 44.8242 5.24479 45.1367 5.8125C45.4492 6.38021 45.6055 7.14062 45.6055 8.09375V16H43.7617V14.375H43.668C43.543 14.6354 43.3346 14.9141 43.043 15.2109C42.7513 15.5078 42.3633 15.7604 41.8789 15.9687C41.3945 16.1771 40.8034 16.2813 40.1055 16.2813ZM40.3867 14.625C41.1159 14.625 41.7305 14.4818 42.2305 14.1953C42.7357 13.9089 43.1159 13.5391 43.3711 13.0859C43.6315 12.6328 43.7617 12.1562 43.7617 11.6562V9.96875C43.6836 10.0625 43.5117 10.1484 43.2461 10.2266C42.9857 10.2995 42.6836 10.3646 42.3398 10.4219C42.0013 10.474 41.6706 10.5208 41.3477 10.5625C41.0299 10.599 40.7721 10.6302 40.5742 10.6562C40.0951 10.7187 39.6471 10.8203 39.2305 10.9609C38.819 11.0964 38.4857 11.3021 38.2305 11.5781C37.9805 11.849 37.8555 12.2187 37.8555 12.6875C37.8555 13.3281 38.0924 13.8125 38.5664 14.1406C39.0456 14.4635 39.6523 14.625 40.3867 14.625Z" fill="white"/>
</svg>
