<svg width="63" height="20" viewBox="0 0 63 20" fill="none" xmlns="http://www.w3.org/2000/svg">
<path d="M11.5341 0.454545V15H9.82954L1.90341 3.57955H1.76136V15H-4.05312e-06V0.454545H1.70454L9.65909 11.9034H9.80113V0.454545H11.5341ZM19.4052 15.2273C18.354 15.2273 17.4473 14.9953 16.685 14.5312C15.9274 14.0625 15.3427 13.4091 14.9307 12.571C14.5236 11.7282 14.32 10.7481 14.32 9.63068C14.32 8.51326 14.5236 7.52841 14.9307 6.67614C15.3427 5.81913 15.9156 5.15152 16.6495 4.6733C17.3881 4.19034 18.2499 3.94886 19.2347 3.94886C19.8029 3.94886 20.364 4.04356 20.918 4.23295C21.4719 4.42235 21.9762 4.73011 22.4307 5.15625C22.8853 5.57765 23.2475 6.13636 23.5174 6.83239C23.7873 7.52841 23.9222 8.38542 23.9222 9.40341V10.1136H15.5131V8.66477H22.2177C22.2177 8.04924 22.0946 7.5 21.8484 7.01705C21.6069 6.53409 21.2612 6.15294 20.8114 5.87358C20.3664 5.59422 19.8408 5.45455 19.2347 5.45455C18.5671 5.45455 17.9895 5.62026 17.5018 5.9517C17.0188 6.27841 16.6471 6.70455 16.3867 7.23011C16.1263 7.75568 15.9961 8.31913 15.9961 8.92045V9.88636C15.9961 10.7102 16.1381 11.4086 16.4222 11.9815C16.7111 12.5497 17.1111 12.983 17.6225 13.2812C18.1339 13.5748 18.7281 13.7216 19.4052 13.7216C19.8455 13.7216 20.2432 13.66 20.5984 13.5369C20.9582 13.4091 21.2683 13.2197 21.5288 12.9688C21.7892 12.7131 21.9904 12.3958 22.1325 12.017L23.7518 12.4716C23.5813 13.0208 23.2949 13.5038 22.8924 13.9205C22.4899 14.3324 21.9928 14.6544 21.4009 14.8864C20.8091 15.1136 20.1438 15.2273 19.4052 15.2273ZM27.429 4.09091L30.0426 8.55114L32.6562 4.09091H34.5881L31.0653 9.54545L34.5881 15H32.6562L30.0426 10.767L27.429 15H25.4972L28.9631 9.54545L25.4972 4.09091H27.429ZM41.7241 4.09091V5.51136H36.0707V4.09091H41.7241ZM37.7184 1.47727H39.3945V11.875C39.3945 12.3485 39.4632 12.7036 39.6005 12.9403C39.7425 13.1723 39.9225 13.3286 40.1403 13.4091C40.3628 13.4848 40.5972 13.5227 40.8434 13.5227C41.0281 13.5227 41.1796 13.5133 41.2979 13.4943C41.4163 13.4706 41.511 13.4517 41.582 13.4375L41.9229 14.9432C41.8093 14.9858 41.6507 15.0284 41.4471 15.071C41.2435 15.1184 40.9854 15.142 40.6729 15.142C40.1995 15.142 39.7354 15.0402 39.2809 14.8366C38.8311 14.633 38.457 14.3229 38.1587 13.9062C37.8652 13.4896 37.7184 12.964 37.7184 12.3295V1.47727ZM45.467 15.1136C45.1166 15.1136 44.8159 14.9882 44.565 14.7372C44.314 14.4863 44.1886 14.1856 44.1886 13.8352C44.1886 13.4848 44.314 13.1842 44.565 12.9332C44.8159 12.6823 45.1166 12.5568 45.467 12.5568C45.8173 12.5568 46.118 12.6823 46.369 12.9332C46.6199 13.1842 46.7454 13.4848 46.7454 13.8352C46.7454 14.0672 46.6862 14.2803 46.5678 14.4744C46.4542 14.6686 46.3003 14.8248 46.1062 14.9432C45.9168 15.0568 45.7037 15.1136 45.467 15.1136ZM49.7532 4.09091H51.4293V15.7955C51.4293 16.4678 51.3133 17.0502 51.0813 17.5426C50.854 18.035 50.5084 18.4162 50.0444 18.6861C49.5851 18.956 49.0051 19.0909 48.3043 19.0909C48.2475 19.0909 48.1907 19.0909 48.1339 19.0909C48.0771 19.0909 48.0202 19.0909 47.9634 19.0909V17.5284C48.0202 17.5284 48.0723 17.5284 48.1197 17.5284C48.167 17.5284 48.2191 17.5284 48.2759 17.5284C48.7873 17.5284 49.1613 17.3769 49.3981 17.0739C49.6348 16.7756 49.7532 16.3494 49.7532 15.7955V4.09091ZM50.5771 2.27273C50.2504 2.27273 49.9686 2.16146 49.7319 1.93892C49.4999 1.71638 49.3839 1.44886 49.3839 1.13636C49.3839 0.823864 49.4999 0.556345 49.7319 0.333806C49.9686 0.111269 50.2504 0 50.5771 0C50.9038 0 51.1831 0.111269 51.4151 0.333806C51.6519 0.556345 51.7702 0.823864 51.7702 1.13636C51.7702 1.44886 51.6519 1.71638 51.4151 1.93892C51.1831 2.16146 50.9038 2.27273 50.5771 2.27273ZM62.2266 6.53409L60.7209 6.96023C60.6262 6.70928 60.4865 6.46544 60.3018 6.22869C60.1219 5.98722 59.8757 5.78835 59.5632 5.6321C59.2507 5.47585 58.8506 5.39773 58.3629 5.39773C57.6953 5.39773 57.139 5.55161 56.6939 5.85938C56.2535 6.16241 56.0334 6.5483 56.0334 7.01705C56.0334 7.43371 56.1849 7.76278 56.4879 8.00426C56.791 8.24574 57.2644 8.44697 57.9084 8.60795L59.5277 9.00568C60.5031 9.24242 61.2299 9.60464 61.7081 10.0923C62.1863 10.5753 62.4254 11.1979 62.4254 11.9602C62.4254 12.5852 62.2455 13.1439 61.8856 13.6364C61.5305 14.1288 61.0334 14.517 60.3942 14.8011C59.755 15.0852 59.0116 15.2273 58.1641 15.2273C57.0514 15.2273 56.1304 14.9858 55.4013 14.5028C54.6721 14.0199 54.2105 13.3144 54.0163 12.3864L55.6072 11.9886C55.7588 12.5758 56.0452 13.0161 56.4666 13.3097C56.8928 13.6032 57.4491 13.75 58.1356 13.75C58.9169 13.75 59.5372 13.5843 59.9964 13.2528C60.4605 12.9167 60.6925 12.5142 60.6925 12.0455C60.6925 11.6667 60.5599 11.3494 60.2947 11.0938C60.0296 10.8333 59.6224 10.6392 59.0731 10.5114L57.255 10.0852C56.2559 9.84848 55.522 9.48153 55.0533 8.98438C54.5892 8.48248 54.3572 7.85511 54.3572 7.10227C54.3572 6.48674 54.5301 5.94223 54.8757 5.46875C55.2261 4.99527 55.7019 4.62358 56.3033 4.35369C56.9093 4.08381 57.5959 3.94886 58.3629 3.94886C59.4425 3.94886 60.29 4.18561 60.9055 4.65909C61.5258 5.13258 61.9661 5.75758 62.2266 6.53409Z" fill="white"/>
</svg>
