<svg width="52" height="15" viewBox="0 0 52 15" fill="none" xmlns="http://www.w3.org/2000/svg">
<path d="M-4.05312e-06 14.5454V-4.48227e-05H4.91477C6.05113 -4.48227e-05 6.9839 0.194084 7.71306 0.582341C8.44223 0.965864 8.982 1.4938 9.33238 2.16615C9.68276 2.8385 9.85795 3.60318 9.85795 4.46018C9.85795 5.31719 9.68276 6.07713 9.33238 6.74001C8.982 7.40289 8.4446 7.92372 7.72017 8.30251C6.99573 8.67657 6.07007 8.86359 4.94318 8.86359H0.965905V7.27268H4.88636C5.66287 7.27268 6.28787 7.15905 6.76136 6.93177C7.23958 6.7045 7.58522 6.38253 7.79829 5.96586C8.01609 5.54446 8.125 5.04257 8.125 4.46018C8.125 3.8778 8.01609 3.3688 7.79829 2.93319C7.58049 2.49759 7.23248 2.16141 6.75426 1.92467C6.27604 1.68319 5.64394 1.56246 4.85795 1.56246H1.76136V14.5454H-4.05312e-06ZM6.84659 8.01132L10.4261 14.5454H8.38068L4.85795 8.01132H6.84659ZM17.0224 14.7727C15.9712 14.7727 15.0645 14.5407 14.3022 14.0767C13.5446 13.6079 12.9599 12.9545 12.5479 12.1164C12.1407 11.2736 11.9371 10.2935 11.9371 9.17609C11.9371 8.05867 12.1407 7.07382 12.5479 6.22155C12.9599 5.36454 13.5328 4.69693 14.2667 4.21871C15.0053 3.73575 15.8671 3.49427 16.8519 3.49427C17.4201 3.49427 17.9812 3.58897 18.5352 3.77836C19.0891 3.96776 19.5934 4.27552 20.0479 4.70166C20.5025 5.12306 20.8647 5.68177 21.1346 6.3778C21.4045 7.07382 21.5394 7.93083 21.5394 8.94882V9.65905H13.1303V8.21018H19.8349C19.8349 7.59465 19.7118 7.04541 19.4656 6.56246C19.2241 6.0795 18.8784 5.69835 18.4286 5.41899C17.9835 5.13963 17.458 4.99996 16.8519 4.99996C16.1843 4.99996 15.6066 5.16567 15.119 5.49711C14.636 5.82382 14.2643 6.24996 14.0039 6.77552C13.7435 7.30109 13.6133 7.86454 13.6133 8.46586V9.43177C13.6133 10.2556 13.7553 10.954 14.0394 11.5269C14.3282 12.0951 14.7283 12.5284 15.2397 12.8267C15.7511 13.1202 16.3453 13.267 17.0224 13.267C17.4627 13.267 17.8604 13.2054 18.2156 13.0823C18.5754 12.9545 18.8855 12.7651 19.1459 12.5142C19.4064 12.2585 19.6076 11.9412 19.7496 11.5625L21.369 12.017C21.1985 12.5662 20.912 13.0492 20.5096 13.4659C20.1071 13.8778 19.61 14.1998 19.0181 14.4318C18.4263 14.659 17.761 14.7727 17.0224 14.7727ZM27.2994 14.8011C26.6081 14.8011 25.9807 14.6709 25.4173 14.4105C24.8538 14.1453 24.4064 13.7642 24.0749 13.267C23.7435 12.7651 23.5778 12.159 23.5778 11.4488C23.5778 10.8238 23.7009 10.3172 23.9471 9.92893C24.1933 9.53594 24.5224 9.22817 24.9343 9.00564C25.3462 8.7831 25.8008 8.61738 26.2979 8.50848C26.7998 8.39484 27.3041 8.30488 27.8107 8.23859C28.4736 8.15336 29.011 8.08944 29.4229 8.04683C29.8396 7.99948 30.1426 7.92136 30.332 7.81246C30.5262 7.70355 30.6232 7.51416 30.6232 7.24427V7.18746C30.6232 6.4867 30.4315 5.94219 30.0479 5.55393C29.6691 5.16568 29.0939 4.97155 28.3221 4.97155C27.5219 4.97155 26.8945 5.14674 26.44 5.49711C25.9854 5.84749 25.6658 6.22155 25.4812 6.61927L23.8903 6.05109C24.1744 5.38821 24.5531 4.87211 25.0266 4.5028C25.5048 4.12874 26.0257 3.86833 26.5891 3.72155C27.1573 3.57003 27.716 3.49427 28.2653 3.49427C28.6156 3.49427 29.0181 3.53689 29.4727 3.62211C29.9319 3.70261 30.3746 3.87069 30.8008 4.12638C31.2316 4.38206 31.5891 4.76795 31.8732 5.28405C32.1573 5.80014 32.2994 6.49143 32.2994 7.35791V14.5454H30.6232V13.0681H30.538C30.4244 13.3049 30.235 13.5582 29.9698 13.8281C29.7047 14.098 29.3519 14.3276 28.9116 14.517C28.4712 14.7064 27.9338 14.8011 27.2994 14.8011ZM27.555 13.2954C28.2179 13.2954 28.7766 13.1652 29.2312 12.9048C29.6905 12.6444 30.0361 12.3082 30.2681 11.8963C30.5048 11.4843 30.6232 11.0511 30.6232 10.5965V9.06246C30.5522 9.14768 30.3959 9.22581 30.1545 9.29683C29.9177 9.36312 29.6431 9.4223 29.3306 9.47439C29.0228 9.52174 28.7222 9.56435 28.4286 9.60223C28.1398 9.63537 27.9054 9.66378 27.7255 9.68746C27.2899 9.74427 26.8827 9.8366 26.5039 9.96444C26.1298 10.0876 25.8268 10.2746 25.5948 10.5255C25.3675 10.7717 25.2539 11.1079 25.2539 11.534C25.2539 12.1164 25.4693 12.5568 25.9002 12.8551C26.3358 13.1486 26.8874 13.2954 27.555 13.2954ZM39.7905 14.7727C38.7678 14.7727 37.8871 14.5312 37.1484 14.0483C36.4098 13.5653 35.8416 12.9001 35.4439 12.0525C35.0462 11.205 34.8473 10.2367 34.8473 9.14768C34.8473 8.03973 35.0509 7.06198 35.4581 6.21444C35.87 5.36217 36.4429 4.69693 37.1768 4.21871C37.9155 3.73575 38.7772 3.49427 39.7621 3.49427C40.5291 3.49427 41.2204 3.63632 41.8359 3.92041C42.4515 4.2045 42.9557 4.60223 43.3487 5.11359C43.7417 5.62496 43.9856 6.22155 44.0803 6.90336H42.4041C42.2763 6.40621 41.9922 5.96586 41.5518 5.58234C41.1162 5.19408 40.5291 4.99996 39.7905 4.99996C39.1371 4.99996 38.5642 5.17041 38.0717 5.51132C37.584 5.84749 37.2029 6.32335 36.9283 6.93888C36.6584 7.54967 36.5234 8.267 36.5234 9.09086C36.5234 9.93367 36.656 10.6676 36.9212 11.2926C37.191 11.9176 37.5698 12.4029 38.0575 12.7485C38.5499 13.0942 39.1276 13.267 39.7905 13.267C40.2261 13.267 40.6214 13.1912 40.9766 13.0397C41.3317 12.8882 41.6323 12.6704 41.8785 12.3863C42.1248 12.1022 42.2999 11.7613 42.4041 11.3636H44.0803C43.9856 12.0075 43.7512 12.5876 43.3771 13.1036C43.0078 13.615 42.5178 14.0222 41.907 14.3252C41.3009 14.6235 40.5954 14.7727 39.7905 14.7727ZM51.2749 3.63632V5.05677H45.6214V3.63632H51.2749ZM47.2692 1.02268H48.9453V11.4204C48.9453 11.8939 49.014 12.249 49.1513 12.4858C49.2933 12.7178 49.4732 12.874 49.691 12.9545C49.9136 13.0303 50.148 13.0681 50.3942 13.0681C50.5788 13.0681 50.7303 13.0587 50.8487 13.0397C50.9671 13.0161 51.0618 12.9971 51.1328 12.9829L51.4737 14.4886C51.3601 14.5312 51.2015 14.5738 50.9979 14.6164C50.7943 14.6638 50.5362 14.6875 50.2237 14.6875C49.7502 14.6875 49.2862 14.5857 48.8317 14.3821C48.3819 14.1785 48.0078 13.8683 47.7095 13.4517C47.416 13.035 47.2692 12.5094 47.2692 11.875V1.02268Z" fill="white"/>
</svg>
