<svg width="75" height="16" viewBox="0 0 75 16" fill="none" xmlns="http://www.w3.org/2000/svg">
<path d="M-2.72691e-06 2.01705V0.454545H10.9091V2.01705H6.33522V15H4.57386V2.01705H-2.72691e-06ZM15.1261 15.2557C14.4348 15.2557 13.8074 15.1255 13.244 14.8651C12.6805 14.5999 12.2331 14.2188 11.9016 13.7216C11.5702 13.2197 11.4045 12.6136 11.4045 11.9034C11.4045 11.2784 11.5276 10.7718 11.7738 10.3835C12.02 9.99053 12.3491 9.68276 12.761 9.46023C13.1729 9.23769 13.6275 9.07197 14.1246 8.96307C14.6265 8.84943 15.1308 8.75947 15.6374 8.69318C16.3003 8.60795 16.8377 8.54403 17.2496 8.50142C17.6663 8.45407 17.9693 8.37595 18.1587 8.26705C18.3529 8.15814 18.4499 7.96875 18.4499 7.69886V7.64205C18.4499 6.94129 18.2582 6.39678 17.8746 6.00852C17.4959 5.62027 16.9206 5.42614 16.1488 5.42614C15.3486 5.42614 14.7212 5.60133 14.2667 5.9517C13.8121 6.30208 13.4925 6.67614 13.3079 7.07386L11.717 6.50568C12.0011 5.8428 12.3799 5.3267 12.8533 4.95739C13.3316 4.58333 13.8524 4.32292 14.4158 4.17614C14.984 4.02462 15.5427 3.94886 16.092 3.94886C16.4424 3.94886 16.8448 3.99148 17.2994 4.0767C17.7586 4.1572 18.2013 4.32528 18.6275 4.58097C19.0584 4.83665 19.4158 5.22254 19.6999 5.73864C19.984 6.25473 20.1261 6.94602 20.1261 7.8125V15H18.4499V13.5227H18.3647C18.2511 13.7595 18.0617 14.0128 17.7965 14.2827C17.5314 14.5526 17.1786 14.7822 16.7383 14.9716C16.2979 15.161 15.7605 15.2557 15.1261 15.2557ZM15.3817 13.75C16.0446 13.75 16.6033 13.6198 17.0579 13.3594C17.5172 13.099 17.8628 12.7628 18.0948 12.3509C18.3316 11.9389 18.4499 11.5057 18.4499 11.0511V9.51705C18.3789 9.60227 18.2227 9.6804 17.9812 9.75142C17.7444 9.81771 17.4698 9.87689 17.1573 9.92898C16.8495 9.97633 16.5489 10.0189 16.2553 10.0568C15.9665 10.09 15.7321 10.1184 15.5522 10.142C15.1166 10.1989 14.7094 10.2912 14.3306 10.419C13.9566 10.5421 13.6535 10.7292 13.4215 10.9801C13.1942 11.2263 13.0806 11.5625 13.0806 11.9886C13.0806 12.571 13.296 13.0114 13.7269 13.3097C14.1625 13.6032 14.7141 13.75 15.3817 13.75ZM23.1854 15V4.09091H24.8615V15H23.1854ZM24.0376 2.27273C23.7109 2.27273 23.4292 2.16146 23.1925 1.93892C22.9605 1.71638 22.8445 1.44886 22.8445 1.13636C22.8445 0.823864 22.9605 0.556345 23.1925 0.333806C23.4292 0.111269 23.7109 0 24.0376 0C24.3643 0 24.6437 0.111269 24.8757 0.333806C25.1125 0.556345 25.2308 0.823864 25.2308 1.13636C25.2308 1.44886 25.1125 1.71638 24.8757 1.93892C24.6437 2.16146 24.3643 2.27273 24.0376 2.27273ZM29.6076 0.454545V15H27.9315V0.454545H29.6076ZM35.1491 15L31.8253 4.09091H33.5866L35.9446 12.4432H36.0582L38.3878 4.09091H40.1776L42.4787 12.4148H42.5923L44.9503 4.09091H46.7116L43.3878 15H41.7401L39.3537 6.61932H39.1832L36.7969 15H35.1491ZM48.9276 15V4.09091H50.6037V15H48.9276ZM49.7798 2.27273C49.4531 2.27273 49.1714 2.16146 48.9347 1.93892C48.7026 1.71638 48.5866 1.44886 48.5866 1.13636C48.5866 0.823864 48.7026 0.556345 48.9347 0.333806C49.1714 0.111269 49.4531 0 49.7798 0C50.1065 0 50.3859 0.111269 50.6179 0.333806C50.8546 0.556345 50.973 0.823864 50.973 1.13636C50.973 1.44886 50.8546 1.71638 50.6179 1.93892C50.3859 2.16146 50.1065 2.27273 49.7798 2.27273ZM55.3498 8.4375V15H53.6736V4.09091H55.293V5.79545H55.435C55.6907 5.24148 56.079 4.7964 56.5998 4.46023C57.1206 4.11932 57.793 3.94886 58.6168 3.94886C59.3555 3.94886 60.0018 4.10038 60.5558 4.40341C61.1097 4.7017 61.5406 5.15625 61.8484 5.76705C62.1561 6.37311 62.31 7.14015 62.31 8.06818V15H60.6339V8.18182C60.6339 7.32481 60.4113 6.6572 59.9663 6.17898C59.5212 5.69602 58.9104 5.45455 58.1339 5.45455C57.5988 5.45455 57.1206 5.57055 56.6992 5.80256C56.2825 6.03456 55.9535 6.37311 55.712 6.81818C55.4705 7.26326 55.3498 7.80303 55.3498 8.4375ZM69.4922 15.2273C68.5831 15.2273 67.7805 14.9976 67.0845 14.5384C66.3885 14.0743 65.844 13.4209 65.451 12.5781C65.058 11.7306 64.8615 10.7292 64.8615 9.57386C64.8615 8.42803 65.058 7.43371 65.451 6.59091C65.844 5.74811 66.3909 5.09706 67.0916 4.63778C67.7924 4.1785 68.602 3.94886 69.5206 3.94886C70.2308 3.94886 70.7919 4.06723 71.2038 4.30398C71.6205 4.53598 71.9377 4.80114 72.1555 5.09943C72.3781 5.39299 72.5509 5.63447 72.674 5.82386H72.816V0.454545H74.4922V15H72.8729V13.3239H72.674C72.5509 13.5227 72.3757 13.7737 72.1484 14.0767C71.9212 14.375 71.5968 14.6425 71.1754 14.8793C70.754 15.1113 70.1929 15.2273 69.4922 15.2273ZM69.7195 13.7216C70.3918 13.7216 70.96 13.5464 71.424 13.196C71.888 12.8409 72.2408 12.3509 72.4822 11.7259C72.7237 11.0961 72.8445 10.3693 72.8445 9.54545C72.8445 8.73106 72.7261 8.01847 72.4893 7.40767C72.2526 6.79214 71.9022 6.31392 71.4382 5.97301C70.9742 5.62737 70.4013 5.45455 69.7195 5.45455C69.0092 5.45455 68.4174 5.63684 67.9439 6.00142C67.4751 6.36127 67.1224 6.85133 66.8857 7.47159C66.6536 8.08712 66.5376 8.77841 66.5376 9.54545C66.5376 10.322 66.656 11.0275 66.8928 11.6619C67.1342 12.2917 67.4893 12.7936 67.9581 13.1676C68.4316 13.5369 69.0187 13.7216 69.7195 13.7216Z" fill="white"/>
</svg>
