<svg width="101" height="20" viewBox="0 0 101 20" fill="none" xmlns="http://www.w3.org/2000/svg">
<path d="M-2.72691e-06 2.01705V0.454545H10.9091V2.01705H6.33522V15H4.57386V2.01705H-2.72691e-06ZM13.2298 19.0909C12.9457 19.0909 12.6924 19.0672 12.4698 19.0199C12.2473 18.9773 12.0934 18.9347 12.0082 18.892L12.4343 17.4148C12.8415 17.5189 13.2013 17.5568 13.5138 17.5284C13.8263 17.5 14.1033 17.3603 14.3448 17.1094C14.591 16.8632 14.8159 16.4631 15.0195 15.9091L15.332 15.0568L11.2979 4.09091H13.1161L16.1275 12.7841H16.2411L19.2525 4.09091H21.0707L16.44 16.5909C16.2316 17.1544 15.9736 17.6207 15.6658 17.9901C15.3581 18.3641 15.0006 18.6411 14.5934 18.821C14.1909 19.0009 13.7364 19.0909 13.2298 19.0909ZM23.283 19.0909V4.09091H24.9023V5.82386H25.1012C25.2243 5.63447 25.3948 5.39299 25.6126 5.09943C25.8351 4.80114 26.1523 4.53598 26.5643 4.30398C26.9809 4.06723 27.5444 3.94886 28.2546 3.94886C29.1732 3.94886 29.9828 4.1785 30.6836 4.63778C31.3843 5.09706 31.9312 5.74811 32.3242 6.59091C32.7172 7.43371 32.9137 8.42803 32.9137 9.57386C32.9137 10.7292 32.7172 11.7306 32.3242 12.5781C31.9312 13.4209 31.3867 14.0743 30.6907 14.5384C29.9947 14.9976 29.1921 15.2273 28.283 15.2273C27.5823 15.2273 27.0212 15.1113 26.5998 14.8793C26.1784 14.6425 25.854 14.375 25.6268 14.0767C25.3995 13.7737 25.2243 13.5227 25.1012 13.3239H24.9592V19.0909H23.283ZM24.9308 9.54545C24.9308 10.3693 25.0515 11.0961 25.293 11.7259C25.5344 12.3509 25.8872 12.8409 26.3512 13.196C26.8152 13.5464 27.3834 13.7216 28.0558 13.7216C28.7565 13.7216 29.3413 13.5369 29.81 13.1676C30.2835 12.7936 30.6386 12.2917 30.8754 11.6619C31.1168 11.0275 31.2376 10.322 31.2376 9.54545C31.2376 8.77841 31.1192 8.08712 30.8825 7.47159C30.6504 6.85133 30.2977 6.36127 29.8242 6.00142C29.3555 5.63684 28.766 5.45455 28.0558 5.45455C27.3739 5.45455 26.801 5.62737 26.337 5.97301C25.873 6.31392 25.5226 6.79214 25.2859 7.40767C25.0491 8.01847 24.9308 8.73106 24.9308 9.54545ZM40.0444 15.2273C38.9933 15.2273 38.0865 14.9953 37.3242 14.5312C36.5666 14.0625 35.9819 13.4091 35.57 12.571C35.1628 11.7282 34.9592 10.7481 34.9592 9.63068C34.9592 8.51326 35.1628 7.52841 35.57 6.67614C35.9819 5.81913 36.5548 5.15152 37.2887 4.6733C38.0273 4.19034 38.8891 3.94886 39.8739 3.94886C40.4421 3.94886 41.0032 4.04356 41.5572 4.23295C42.1111 4.42235 42.6154 4.73011 43.07 5.15625C43.5245 5.57765 43.8867 6.13636 44.1566 6.83239C44.4265 7.52841 44.5614 8.38542 44.5614 9.40341V10.1136H36.1523V8.66477H42.8569C42.8569 8.04924 42.7338 7.5 42.4876 7.01705C42.2461 6.53409 41.9004 6.15294 41.4506 5.87358C41.0056 5.59422 40.48 5.45455 39.8739 5.45455C39.2063 5.45455 38.6287 5.62026 38.141 5.9517C37.658 6.27841 37.2863 6.70455 37.0259 7.23011C36.7655 7.75568 36.6353 8.31913 36.6353 8.92045V9.88636C36.6353 10.7102 36.7773 11.4086 37.0614 11.9815C37.3503 12.5497 37.7504 12.983 38.2617 13.2812C38.7731 13.5748 39.3673 13.7216 40.0444 13.7216C40.4847 13.7216 40.8825 13.66 41.2376 13.5369C41.5974 13.4091 41.9075 13.2197 42.168 12.9688C42.4284 12.7131 42.6296 12.3958 42.7717 12.017L44.391 12.4716C44.2205 13.0208 43.9341 13.5038 43.5316 13.9205C43.1291 14.3324 42.632 14.6544 42.0401 14.8864C41.4483 15.1136 40.783 15.2273 40.0444 15.2273ZM55.293 4.09091C55.2077 3.37121 54.8621 2.8125 54.256 2.41477C53.65 2.01705 52.9066 1.81818 52.0259 1.81818C51.382 1.81818 50.8185 1.92235 50.3356 2.13068C49.8574 2.33901 49.4833 2.62547 49.2134 2.99006C48.9483 3.35464 48.8157 3.76894 48.8157 4.23295C48.8157 4.62121 48.908 4.95502 49.0927 5.23438C49.2821 5.509 49.5236 5.73864 49.8171 5.9233C50.1107 6.10322 50.4184 6.25237 50.7404 6.37074C51.0624 6.48437 51.3583 6.5767 51.6282 6.64773L53.1055 7.04545C53.4843 7.14489 53.9057 7.2822 54.3697 7.45739C54.8384 7.63258 55.2859 7.87169 55.712 8.17472C56.1429 8.47301 56.498 8.85653 56.7773 9.32528C57.0567 9.79403 57.1964 10.3693 57.1964 11.0511C57.1964 11.8371 56.9904 12.5473 56.5785 13.1818C56.1713 13.8163 55.5747 14.3205 54.7887 14.6946C54.0075 15.0687 53.0581 15.2557 51.9407 15.2557C50.899 15.2557 49.997 15.0876 49.2347 14.7514C48.4772 14.4152 47.8806 13.9465 47.445 13.3452C47.0141 12.7438 46.7702 12.0455 46.7134 11.25H48.5316C48.579 11.7992 48.7636 12.2538 49.0856 12.6136C49.4123 12.9687 49.8242 13.2339 50.3214 13.4091C50.8233 13.5795 51.363 13.6648 51.9407 13.6648C52.613 13.6648 53.2167 13.5559 53.7518 13.3381C54.2868 13.1155 54.7106 12.8078 55.0231 12.4148C55.3356 12.017 55.4918 11.553 55.4918 11.0227C55.4918 10.5398 55.3569 10.1468 55.087 9.84375C54.8171 9.54072 54.462 9.29451 54.0217 9.10511C53.5813 8.91572 53.1055 8.75 52.5941 8.60795L50.8043 8.09659C49.668 7.76989 48.7683 7.3035 48.1055 6.69744C47.4426 6.09138 47.1111 5.2983 47.1111 4.31818C47.1111 3.50379 47.3313 2.79356 47.7717 2.1875C48.2167 1.5767 48.8133 1.10322 49.5614 0.767045C50.3143 0.426136 51.1547 0.255681 52.0827 0.255681C53.0202 0.255681 53.8536 0.423768 54.5827 0.759943C55.3119 1.09138 55.8896 1.54593 56.3157 2.12358C56.7466 2.70123 56.9738 3.35701 56.9975 4.09091H55.293ZM64.2969 15.2273C63.2741 15.2273 62.3935 14.9858 61.6548 14.5028C60.9162 14.0199 60.348 13.3546 59.9503 12.5071C59.5526 11.6596 59.3537 10.6913 59.3537 9.60227C59.3537 8.49432 59.5573 7.51657 59.9645 6.66903C60.3764 5.81676 60.9493 5.15152 61.6832 4.6733C62.4219 4.19034 63.2836 3.94886 64.2685 3.94886C65.0355 3.94886 65.7268 4.09091 66.3423 4.375C66.9579 4.65909 67.4621 5.05682 67.8551 5.56818C68.2481 6.07955 68.4919 6.67614 68.5866 7.35795H66.9105C66.7827 6.8608 66.4986 6.42045 66.0582 6.03693C65.6226 5.64867 65.0355 5.45455 64.2969 5.45455C63.6435 5.45455 63.0705 5.625 62.5781 5.96591C62.0904 6.30208 61.7093 6.77794 61.4347 7.39347C61.1648 8.00426 61.0298 8.72159 61.0298 9.54545C61.0298 10.3883 61.1624 11.1222 61.4276 11.7472C61.6974 12.3722 62.0762 12.8575 62.5639 13.2031C63.0563 13.5488 63.634 13.7216 64.2969 13.7216C64.7325 13.7216 65.1278 13.6458 65.483 13.4943C65.8381 13.3428 66.1387 13.125 66.3849 12.8409C66.6312 12.5568 66.8063 12.2159 66.9105 11.8182H68.5866C68.4919 12.4621 68.2576 13.0421 67.8835 13.5582C67.5142 14.0696 67.0241 14.4768 66.4133 14.7798C65.8073 15.0781 65.1018 15.2273 64.2969 15.2273ZM71.0369 15V4.09091H72.6562V5.73864H72.7699C72.9687 5.19886 73.3286 4.76089 73.8494 4.42472C74.3703 4.08854 74.9574 3.92045 75.6108 3.92045C75.7339 3.92045 75.8878 3.92282 76.0724 3.92756C76.2571 3.93229 76.3968 3.93939 76.4915 3.94886V5.65341C76.4347 5.6392 76.3044 5.6179 76.1008 5.58949C75.902 5.55634 75.6913 5.53977 75.4687 5.53977C74.9384 5.53977 74.465 5.65104 74.0483 5.87358C73.6364 6.09138 73.3097 6.39441 73.0682 6.78267C72.8314 7.16619 72.7131 7.60417 72.7131 8.09659V15H71.0369ZM78.4783 15V4.09091H80.1545V15H78.4783ZM79.3306 2.27273C79.0039 2.27273 78.7222 2.16146 78.4854 1.93892C78.2534 1.71638 78.1374 1.44886 78.1374 1.13636C78.1374 0.823864 78.2534 0.556345 78.4854 0.333806C78.7222 0.111269 79.0039 0 79.3306 0C79.6573 0 79.9367 0.111269 80.1687 0.333806C80.4054 0.556345 80.5238 0.823864 80.5238 1.13636C80.5238 1.44886 80.4054 1.71638 80.1687 1.93892C79.9367 2.16146 79.6573 2.27273 79.3306 2.27273ZM83.2244 19.0909V4.09091H84.8437V5.82386H85.0426C85.1657 5.63447 85.3362 5.39299 85.554 5.09943C85.7765 4.80114 86.0937 4.53598 86.5057 4.30398C86.9223 4.06723 87.4858 3.94886 88.196 3.94886C89.1146 3.94886 89.9242 4.1785 90.625 4.63778C91.3258 5.09706 91.8726 5.74811 92.2656 6.59091C92.6586 7.43371 92.8551 8.42803 92.8551 9.57386C92.8551 10.7292 92.6586 11.7306 92.2656 12.5781C91.8726 13.4209 91.3281 14.0743 90.6321 14.5384C89.9361 14.9976 89.1335 15.2273 88.2244 15.2273C87.5237 15.2273 86.9626 15.1113 86.5412 14.8793C86.1198 14.6425 85.7955 14.375 85.5682 14.0767C85.3409 13.7737 85.1657 13.5227 85.0426 13.3239H84.9006V19.0909H83.2244ZM84.8722 9.54545C84.8722 10.3693 84.9929 11.0961 85.2344 11.7259C85.4758 12.3509 85.8286 12.8409 86.2926 13.196C86.7566 13.5464 87.3248 13.7216 87.9972 13.7216C88.6979 13.7216 89.2827 13.5369 89.7514 13.1676C90.2249 12.7936 90.58 12.2917 90.8168 11.6619C91.0582 11.0275 91.179 10.322 91.179 9.54545C91.179 8.77841 91.0606 8.08712 90.8239 7.47159C90.5919 6.85133 90.2391 6.36127 89.7656 6.00142C89.2969 5.63684 88.7074 5.45455 87.9972 5.45455C87.3153 5.45455 86.7424 5.62737 86.2784 5.97301C85.8144 6.31392 85.464 6.79214 85.2273 7.40767C84.9905 8.01847 84.8722 8.73106 84.8722 9.54545ZM100.156 4.09091V5.51136H94.5028V4.09091H100.156ZM96.1506 1.47727H97.8267V11.875C97.8267 12.3485 97.8954 12.7036 98.0327 12.9403C98.1747 13.1723 98.3546 13.3286 98.5724 13.4091C98.795 13.4848 99.0294 13.5227 99.2756 13.5227C99.4602 13.5227 99.6117 13.5133 99.7301 13.4943C99.8485 13.4706 99.9432 13.4517 100.014 13.4375L100.355 14.9432C100.241 14.9858 100.083 15.0284 99.8793 15.071C99.6757 15.1184 99.4176 15.142 99.1051 15.142C98.6316 15.142 98.1676 15.0402 97.7131 14.8366C97.2633 14.633 96.8892 14.3229 96.5909 13.9062C96.2973 13.4896 96.1506 12.964 96.1506 12.3295V1.47727Z" fill="white"/>
</svg>
